<?xml version="1.0" encoding="utf-8" standalone="no"?>
<!DOCTYPE svg PUBLIC "-//W3C//DTD SVG 1.1//EN"
  "http://www.w3.org/Graphics/SVG/1.1/DTD/svg11.dtd">
<svg xmlns:xlink="http://www.w3.org/1999/xlink" width="295.4pt" height="305.278125pt" viewBox="0 0 295.4 305.278125" xmlns="http://www.w3.org/2000/svg" version="1.1">
 <metadata>
  <rdf:RDF xmlns:dc="http://purl.org/dc/elements/1.1/" xmlns:cc="http://creativecommons.org/ns#" xmlns:rdf="http://www.w3.org/1999/02/22-rdf-syntax-ns#">
   <cc:Work>
    <dc:type rdf:resource="http://purl.org/dc/dcmitype/StillImage"/>
    <dc:date>2026-01-20T14:29:06.606723</dc:date>
    <dc:format>image/svg+xml</dc:format>
    <dc:creator>
     <cc:Agent>
      <dc:title>Matplotlib v3.10.0, https://matplotlib.org/</dc:title>
     </cc:Agent>
    </dc:creator>
   </cc:Work>
  </rdf:RDF>
 </metadata>
 <defs>
  <style type="text/css">*{stroke-linejoin: round; stroke-linecap: butt}</style>
 </defs>
 <g id="figure_1">
  <g id="patch_1">
   <path d="M 0 305.278125 
L 295.4 305.278125 
L 295.4 0 
L 0 0 
z
" style="fill: #ffffff"/>
  </g>
  <g id="axes_1">
   <g id="patch_2">
    <path d="M 9.2 210.029268 
L 288.2 210.029268 
L 288.2 7.2 
L 9.2 7.2 
z
" style="fill: #ffffff"/>
   </g>
   <g id="matplotlib.axis_1"/>
   <g id="matplotlib.axis_2"/>
   <g id="line2d_1">
    <path d="M 9.2 70.573886 
L 14.893878 72.098665 
L 20.587755 69.394242 
L 26.281633 67.646615 
L 31.97551 68.750559 
L 37.669388 67.484939 
L 43.363265 70.855911 
L 49.057143 79.07157 
L 54.75102 68.630122 
L 60.444898 68.254142 
L 66.138776 73.203344 
L 71.832653 72.424886 
L 77.526531 71.079456 
L 83.220408 67.578503 
L 88.914286 70.431969 
L 94.608163 74.48984 
L 100.302041 67.206388 
L 105.995918 68.740941 
L 111.689796 67.677141 
L 117.383673 67.220311 
L 123.077551 67.574049 
L 128.771429 69.547235 
L 134.465306 67.228994 
L 140.159184 71.947576 
L 145.853061 71.340013 
L 151.546939 69.742542 
L 157.240816 69.456218 
L 162.934694 68.487468 
L 168.628571 70.343773 
L 174.322449 71.11904 
L 180.016327 67.239722 
L 185.710204 68.675943 
L 191.404082 67.503897 
L 197.097959 67.803738 
L 202.791837 76.999094 
L 208.485714 67.806431 
L 214.179592 70.416909 
L 219.873469 75.75532 
L 225.567347 68.356547 
L 231.261224 70.062025 
L 236.955102 71.104756 
L 242.64898 70.873658 
L 248.342857 67.250578 
L 254.036735 70.934229 
L 259.730612 79.213547 
L 265.42449 67.248993 
L 271.118367 75.5838 
L 276.812245 71.14947 
L 282.506122 68.1979 
L 288.2 84.306945 
" clip-path="url(#p70bd232db2)" style="fill: none; stroke: #000000; stroke-width: 2.6; stroke-linecap: round"/>
   </g>
   <g id="line2d_2">
    <path d="M 9.2 192.673544 
L 14.893878 191.148765 
L 20.587755 193.853188 
L 26.281633 195.600816 
L 31.97551 194.496871 
L 37.669388 195.762492 
L 43.363265 192.39152 
L 49.057143 184.17586 
L 54.75102 194.617309 
L 60.444898 194.993289 
L 66.138776 190.044086 
L 71.832653 190.822544 
L 77.526531 192.167975 
L 83.220408 195.668927 
L 88.914286 192.815461 
L 94.608163 188.75759 
L 100.302041 196.041043 
L 105.995918 194.506489 
L 111.689796 195.57029 
L 117.383673 196.027119 
L 123.077551 195.673382 
L 128.771429 193.700196 
L 134.465306 196.018437 
L 140.159184 191.299855 
L 145.853061 191.907417 
L 151.546939 193.504888 
L 157.240816 193.791213 
L 162.934694 194.759962 
L 168.628571 192.903658 
L 174.322449 192.12839 
L 180.016327 196.007708 
L 185.710204 194.571487 
L 191.404082 195.743533 
L 197.097959 195.443692 
L 202.791837 186.248336 
L 208.485714 195.440999 
L 214.179592 192.830521 
L 219.873469 187.49211 
L 225.567347 194.890884 
L 231.261224 193.185406 
L 236.955102 192.142675 
L 242.64898 192.373772 
L 248.342857 195.996852 
L 254.036735 192.313201 
L 259.730612 184.033884 
L 265.42449 195.998438 
L 271.118367 187.663631 
L 276.812245 192.097961 
L 282.506122 195.049531 
L 288.2 178.940486 
" clip-path="url(#p70bd232db2)" style="fill: none; stroke: #0000ff; stroke-width: 2.6; stroke-linecap: round"/>
   </g>
   <g id="line2d_3">
    <path d="M 9.2 21.188225 
L 14.893878 21.188225 
L 20.587755 21.188225 
L 26.281633 21.188225 
L 31.97551 21.188225 
L 37.669388 21.188225 
L 43.363265 21.188225 
L 49.057143 21.188225 
L 54.75102 21.188225 
L 60.444898 21.188225 
L 66.138776 21.188225 
L 71.832653 21.188225 
L 77.526531 21.188225 
L 83.220408 21.188225 
L 88.914286 21.188225 
L 94.608163 21.188225 
L 100.302041 21.188225 
L 105.995918 21.188225 
L 111.689796 21.188225 
L 117.383673 21.188225 
L 123.077551 21.188225 
L 128.771429 21.188225 
L 134.465306 21.188225 
L 140.159184 21.188225 
L 145.853061 21.188225 
L 151.546939 21.188225 
L 157.240816 21.188225 
L 162.934694 21.188225 
L 168.628571 21.188225 
L 174.322449 21.188225 
L 180.016327 21.188225 
L 185.710204 21.188225 
L 191.404082 21.188225 
L 197.097959 21.188225 
L 202.791837 21.188225 
L 208.485714 21.188225 
L 214.179592 21.188225 
L 219.873469 21.188225 
L 225.567347 21.188225 
L 231.261224 21.188225 
L 236.955102 21.188225 
L 242.64898 21.188225 
L 248.342857 21.188225 
L 254.036735 21.188225 
L 259.730612 21.188225 
L 265.42449 21.188225 
L 271.118367 21.188225 
L 276.812245 21.188225 
L 282.506122 21.188225 
L 288.2 21.188225 
" clip-path="url(#p70bd232db2)" style="fill: none; stroke: #0000ff; stroke-width: 1.6; stroke-linecap: square"/>
   </g>
   <g id="patch_3">
    <path d="M 9.2 210.029268 
L 9.2 7.2 
" style="fill: none; stroke: #000000; stroke-width: 0.8; stroke-linejoin: miter; stroke-linecap: square"/>
   </g>
   <g id="patch_4">
    <path d="M 9.2 210.029268 
Q 9.2 108.614634 9.2 8.765248 
" style="fill: none; stroke: #000000; stroke-width: 1.4; stroke-linecap: round"/>
    <path d="M 7.2 12.765248 
L 9.2 8.765248 
L 11.2 12.765248 
z
" style="stroke: #000000; stroke-width: 1.4; stroke-linecap: round"/>
   </g>
  </g>
  <g id="axes_2">
   <g id="patch_5">
    <path d="M 9.2 284.4 
L 288.2 284.4 
L 288.2 216.790244 
L 9.2 216.790244 
z
" style="fill: #ffffff"/>
   </g>
   <g id="matplotlib.axis_3">
    <g id="text_1">
     <!-- t -->
     <g transform="translate(146.739844 295.998438) scale(0.1 -0.1)">
      <defs>
       <path id="DejaVuSans-74" d="M 1172 4494 
L 1172 3500 
L 2356 3500 
L 2356 3053 
L 1172 3053 
L 1172 1153 
Q 1172 725 1289 603 
Q 1406 481 1766 481 
L 2356 481 
L 2356 0 
L 1766 0 
Q 1100 0 847 248 
Q 594 497 594 1153 
L 594 3053 
L 172 3053 
L 172 3500 
L 594 3500 
L 594 4494 
L 1172 4494 
z
" transform="scale(0.015625)"/>
      </defs>
      <use xlink:href="#DejaVuSans-74"/>
     </g>
    </g>
   </g>
   <g id="matplotlib.axis_4"/>
   <g id="line2d_4">
    <path d="M 9.2 247.065546 
L 14.893878 243.017373 
L 20.587755 250.812369 
L 26.281633 259.200212 
L 31.97551 253.268808 
L 37.669388 260.575223 
L 43.363265 246.263934 
L 49.057143 228.84651 
L 54.75102 253.779542 
L 60.444898 255.524839 
L 66.138776 240.417199 
L 71.832653 242.226265 
L 77.526531 245.647955 
L 83.220408 259.742792 
L 88.914286 247.480302 
L 94.608163 237.621571 
L 100.302041 265.372475 
L 105.995918 253.308879 
L 111.689796 272.951463 
L 117.383673 264.62851 
L 123.077551 272.142038 
L 128.771429 250.281075 
L 134.465306 264.327923 
L 140.159184 243.391298 
L 145.853061 244.949435 
L 151.546939 249.625779 
L 157.240816 281.326829 
L 162.934694 254.412064 
L 168.628571 247.742217 
L 174.322449 245.540534 
L 180.016327 267.902231 
L 185.710204 253.582882 
L 191.404082 260.396603 
L 197.097959 258.08781 
L 202.791837 232.64706 
L 208.485714 258.070086 
L 214.179592 247.524794 
L 219.873469 235.048744 
L 225.567347 255.023102 
L 231.261224 248.602168 
L 236.955102 245.579243 
L 242.64898 246.214431 
L 248.342857 263.75113 
L 254.036735 246.046275 
L 259.730612 228.593316 
L 265.42449 268.133664 
L 271.118367 235.389007 
L 276.812245 245.458282 
L 282.506122 255.810516 
L 288.2 219.863415 
" clip-path="url(#pd155df789d)" style="fill: none; stroke: #888888; stroke-width: 1.5; stroke-linecap: square"/>
   </g>
   <g id="patch_6">
    <path d="M 9.2 284.4 
L 9.2 216.790244 
" style="fill: none; stroke: #000000; stroke-width: 0.8; stroke-linejoin: miter; stroke-linecap: square"/>
   </g>
   <g id="patch_7">
    <path d="M 9.2 284.4 
L 288.2 284.4 
" style="fill: none; stroke: #000000; stroke-width: 0.8; stroke-linejoin: miter; stroke-linecap: square"/>
   </g>
   <g id="patch_8">
    <path d="M 9.2 284.4 
Q 148.7 284.4 286.634752 284.4 
" style="fill: none; stroke: #000000; stroke-width: 1.4; stroke-linecap: round"/>
    <path d="M 282.634752 282.4 
L 286.634752 284.4 
L 282.634752 286.4 
z
" style="stroke: #000000; stroke-width: 1.4; stroke-linecap: round"/>
   </g>
   <g id="patch_9">
    <path d="M 9.2 284.4 
Q 9.2 250.595122 9.2 218.355491 
" style="fill: none; stroke: #000000; stroke-width: 1.4; stroke-linecap: round"/>
    <path d="M 7.2 222.355491 
L 9.2 218.355491 
L 11.2 222.355491 
z
" style="stroke: #000000; stroke-width: 1.4; stroke-linecap: round"/>
   </g>
  </g>
 </g>
 <defs>
  <clipPath id="p70bd232db2">
   <rect x="9.2" y="7.2" width="279" height="202.829268"/>
  </clipPath>
  <clipPath id="pd155df789d">
   <rect x="9.2" y="216.790244" width="279" height="67.609756"/>
  </clipPath>
 </defs>
</svg>
